<svg width="170" height="40" viewBox="0 0 170 40" fill="none" xmlns="http://www.w3.org/2000/svg">
<path fill-rule="evenodd" clip-rule="evenodd" d="M58.56 29.98C52.805 32.42 46.555 33.6 40.865 33.6C32.43 33.6 24.265 31.285 17.665 27.445C17.09 27.11 16.66 27.7 17.14 28.135C23.26 33.66 31.345 36.98 40.325 36.98C46.735 36.98 54.175 34.965 59.305 31.175C60.155 30.55 59.425 29.61 58.56 29.975" fill="#C65A60"/>
<path fill-rule="evenodd" clip-rule="evenodd" d="M55.32 27.845C54.87 28.165 54.945 28.6 55.45 28.54C57.105 28.34 60.785 27.9 61.445 28.74C62.1 29.58 60.715 33.045 60.095 34.595C59.905 35.06 60.31 35.25 60.735 34.9C63.49 32.595 64.2 27.77 63.635 27.075C63.075 26.385 58.26 25.79 55.325 27.85" fill="#C65A60"/>
<path fill-rule="evenodd" clip-rule="evenodd" d="M92.125 12.15C91.36 10.94 90.16 10.495 88.935 10.495C87.045 10.495 85.975 11.41 85.21 13.33H85.16V11.19C85.16 11.03 84.945 10.79 84.65 10.79H82.125C81.845 10.79 81.615 11.02 81.615 11.3V25.28C81.615 25.56 81.845 25.79 82.125 25.79H84.855C85.14 25.79 85.365 25.56 85.365 25.28V17.73C85.365 16.785 85.425 15.91 85.81 15.05C86.065 14.52 86.655 13.95 87.385 13.95C88.015 13.95 89.1 14.035 89.1 16.87V25.35C89.125 25.59 89.33 25.775 89.58 25.79H92.32C92.59 25.79 92.815 25.595 92.845 25.35V16.52C92.845 15.16 92.845 13.27 92.13 12.15" fill="#C65A60"/>
<path fill-rule="evenodd" clip-rule="evenodd" d="M73.315 23.195C71.17 23.195 71.195 19.535 71.195 17.82C71.195 16.105 71.325 13.36 73.34 13.36C74.21 13.36 74.82 13.745 75.125 14.72C75.485 15.84 75.535 17.26 75.535 18.44C75.535 20.24 75.435 23.195 73.315 23.195V23.195ZM73.315 10.495C69.36 10.495 67.165 13.89 67.165 18.26C67.165 22.63 69.335 26.085 73.315 26.085C77.295 26.085 79.565 22.69 79.565 18.405C79.565 14.12 77.37 10.49 73.315 10.49V10.495Z" fill="#C65A60"/>
<path fill-rule="evenodd" clip-rule="evenodd" d="M65.37 21.99C63.8 21.105 61.97 20.85 60.245 20.89L64.9 14.245C65.33 13.645 65.575 13.27 65.575 12.98V11.26C65.575 10.965 65.345 10.755 65.055 10.755H56.07C55.79 10.755 55.565 10.96 55.56 11.265V13.27C55.56 13.57 55.795 13.775 56.08 13.775H60.775L55.38 21.515C55.05 22.01 55.045 22.57 55.045 22.895V24.93C55.045 25.225 55.37 25.56 55.685 25.395C58.745 23.77 62.415 23.93 65.18 25.375C65.52 25.555 65.84 25.21 65.84 24.915V22.775C65.815 22.485 65.715 22.19 65.365 21.995" fill="#C65A60"/>
<path fill-rule="evenodd" clip-rule="evenodd" d="M47.89 21.99C47.455 22.76 46.765 23.235 45.995 23.235C44.945 23.235 44.335 22.435 44.335 21.25C44.335 18.92 46.425 18.5 48.4 18.5V19.09C48.4 20.155 48.425 21.045 47.89 21.99ZM43.26 17.255C41.545 17.995 40.345 19.505 40.345 21.725C40.345 24.565 42.135 25.985 44.435 25.985C46.38 25.985 47.44 25.525 48.945 23.995C48.945 23.995 49.575 25.095 50.51 25.815C50.645 25.92 50.975 25.915 51.155 25.75C51.155 25.75 52.7 24.41 53.26 23.94C53.485 23.755 53.44 23.465 53.27 23.215C52.77 22.525 52.24 21.965 52.24 20.68V16.42C52.24 14.615 52.365 12.955 51.035 11.715C49.985 10.71 48.245 10.355 46.915 10.355C44.31 10.355 41.41 11.325 40.8 14.54C40.735 14.88 41.005 15.09 41.21 15.11L43.83 15.395C44.065 15.42 44.29 15.165 44.345 14.86C44.54 13.8 45.52 13.245 46.535 13.25C47.095 13.25 47.71 13.475 48.07 13.96C48.535 14.585 48.4 16.3 48.4 16.3C46.815 16.48 44.74 16.595 43.26 17.245V17.255Z" fill="#C65A60"/>
<path fill-rule="evenodd" clip-rule="evenodd" d="M20.07 25.795H22.8C23.08 25.795 23.31 25.565 23.31 25.285V17.85C23.31 16.225 23.235 13.985 25.2 13.985C27.165 13.985 26.885 16.285 26.885 17.85V25.29C26.885 25.56 27.105 25.775 27.38 25.795H30.11C30.4 25.795 30.64 25.57 30.64 25.29V17.85C30.64 17.055 30.615 15.87 30.895 15.165C31.175 14.455 31.865 14.015 32.53 14.015C33.32 14.015 33.935 14.28 34.135 15.225C34.265 15.785 34.21 17.265 34.21 17.85V25.29C34.21 25.56 34.425 25.775 34.7 25.795H37.43C37.72 25.795 37.96 25.57 37.96 25.29V16.43C37.96 14.925 38.14 13.21 37.275 12.03C36.51 10.965 35.26 10.495 34.11 10.495C32.5 10.495 30.995 11.32 30.33 13.095C29.565 11.325 28.49 10.495 26.78 10.495C25.07 10.495 23.845 11.32 23.18 13.095H23.13V11.305C23.13 11.025 22.9 10.795 22.62 10.795H20.07C19.79 10.795 19.56 11.025 19.56 11.305V25.285C19.56 25.565 19.79 25.795 20.07 25.795" fill="#C65A60"/>
<path fill-rule="evenodd" clip-rule="evenodd" d="M12.045 21.99C11.61 22.76 10.92 23.235 10.15 23.235C9.09999 23.235 8.48499 22.435 8.48499 21.25C8.48499 18.92 10.575 18.5 12.55 18.5V19.09C12.55 20.155 12.575 21.045 12.04 21.99H12.045ZM17.425 23.22C16.925 22.53 16.395 21.97 16.395 20.685V16.425C16.395 14.62 16.525 12.96 15.195 11.72C14.145 10.715 12.405 10.36 11.08 10.36C8.47499 10.36 5.57499 11.33 4.96499 14.545C4.89999 14.885 5.17499 15.095 5.37499 15.115L7.99499 15.4C8.22999 15.425 8.45499 15.17 8.50999 14.865C8.70499 13.805 9.68499 13.25 10.7 13.255C11.26 13.255 11.875 13.48 12.235 13.965C12.7 14.59 12.565 16.305 12.565 16.305C10.98 16.485 8.90499 16.6 7.42499 17.25C5.70999 17.99 4.50999 19.5 4.50999 21.72C4.50999 24.56 6.29999 25.98 8.59999 25.98C10.545 25.98 11.605 25.52 13.11 23.99C13.11 23.99 13.745 25.09 14.68 25.81C14.815 25.915 15.145 25.91 15.325 25.745C15.325 25.745 16.87 24.405 17.43 23.935C17.655 23.75 17.615 23.46 17.44 23.21L17.425 23.22Z" fill="#C65A60"/>
<path d="M106.615 24.59C107.66 23.76 108.185 22.65 108.185 21.25C108.185 20.265 107.93 19.46 107.415 18.84C106.9 18.22 106.065 17.68 104.9 17.23L102.595 16.345C101.67 15.99 101.045 15.665 100.73 15.37C100.415 15.075 100.255 14.67 100.255 14.155C100.255 12.875 101.2 12.23 103.095 12.23C104.18 12.23 105.245 12.39 106.29 12.705C106.605 12.805 106.83 12.855 106.97 12.855C107.225 12.855 107.355 12.68 107.355 12.325V11.525C107.355 11.27 107.305 11.075 107.205 10.95C107.105 10.82 106.94 10.72 106.7 10.64C105.475 10.185 104.225 9.96 102.945 9.96C101.33 9.96 100.02 10.355 99.025 11.145C98.03 11.935 97.53 12.97 97.53 14.25C97.53 16.2 98.625 17.585 100.815 18.39L103.33 19.335C104.14 19.63 104.695 19.925 105 20.22C105.305 20.515 105.46 20.9 105.46 21.375C105.46 22.085 105.21 22.625 104.705 23C104.2 23.375 103.465 23.56 102.5 23.56C101.1 23.56 99.75 23.355 98.45 22.94C98.095 22.82 97.85 22.765 97.71 22.765C97.475 22.765 97.355 22.94 97.355 23.295V24.125C97.355 24.38 97.4 24.57 97.49 24.685C97.58 24.8 97.74 24.91 97.98 25.01C99.3 25.56 100.79 25.84 102.445 25.84C104.1 25.84 105.57 25.425 106.615 24.6V24.59ZM113.39 25.39C113.785 25.39 113.98 25.195 113.98 24.8V13.615C115.36 12.75 116.8 12.315 118.3 12.315C119.11 12.315 119.7 12.55 120.075 13.025C120.45 13.5 120.635 14.23 120.635 15.215V24.8C120.635 25.195 120.83 25.39 121.225 25.39H122.97C123.365 25.39 123.56 25.195 123.56 24.8V14.09C123.56 13.93 123.55 13.785 123.53 13.645C124.99 12.76 126.44 12.315 127.88 12.315C128.69 12.315 129.28 12.55 129.655 13.025C130.03 13.5 130.215 14.23 130.215 15.215V24.8C130.215 25.195 130.41 25.39 130.805 25.39H132.55C132.945 25.39 133.14 25.195 133.14 24.8V14.385C133.14 12.965 132.775 11.87 132.045 11.1C131.315 10.33 130.27 9.945 128.91 9.945C126.96 9.945 125.005 10.645 123.055 12.045C122.405 10.645 121.16 9.945 119.33 9.945C117.5 9.945 115.69 10.595 113.8 11.895L113.625 10.95C113.585 10.735 113.51 10.585 113.405 10.505C113.295 10.425 113.145 10.385 112.945 10.385H111.645C111.25 10.385 111.055 10.58 111.055 10.975V24.79C111.055 25.185 111.25 25.38 111.645 25.38H113.39V25.39ZM139.775 25.39C140.17 25.39 140.365 25.195 140.365 24.8V10.985C140.365 10.59 140.17 10.395 139.775 10.395H138.03C137.635 10.395 137.44 10.59 137.44 10.985V24.8C137.44 25.195 137.635 25.39 138.03 25.39H139.775ZM140.265 7.245C140.59 6.92 140.755 6.49 140.755 5.96C140.755 5.43 140.59 5 140.265 4.675C139.94 4.35 139.49 4.185 138.92 4.185C138.35 4.185 137.9 4.35 137.575 4.675C137.25 5 137.085 5.43 137.085 5.96C137.085 6.49 137.25 6.92 137.575 7.245C137.9 7.57 138.35 7.735 138.92 7.735C139.49 7.735 139.94 7.57 140.265 7.245ZM149.48 25.36C149.695 25.3 149.85 25.215 149.94 25.11C150.03 25 150.075 24.85 150.075 24.65V23.705C150.075 23.51 150.04 23.36 149.97 23.26C149.9 23.16 149.77 23.11 149.57 23.11C149.47 23.11 149.36 23.12 149.23 23.14C149.1 23.16 148.98 23.17 148.86 23.17C148.425 23.17 148.115 23.065 147.93 22.86C147.74 22.655 147.65 22.325 147.65 21.87V4.09C147.65 3.695 147.455 3.5 147.06 3.5H145.315C144.92 3.5 144.725 3.695 144.725 4.09V22.045C144.725 23.17 145 24.03 145.555 24.635C146.105 25.235 146.905 25.535 147.95 25.535C148.48 25.535 148.995 25.475 149.49 25.36H149.48Z" fill="#C65A60"/>
<path d="M161.77 25.595C162.59 25.435 163.295 25.23 163.885 24.975C164.14 24.855 164.31 24.745 164.39 24.635C164.47 24.525 164.51 24.345 164.51 24.09V23.26C164.51 22.905 164.38 22.73 164.125 22.73C164.045 22.73 163.955 22.745 163.86 22.775C163.76 22.805 163.645 22.84 163.505 22.88C162.675 23.135 161.99 23.305 161.45 23.385C160.905 23.465 160.34 23.505 159.75 23.505C158.075 23.505 156.835 23.1 156.04 22.29C155.24 21.48 154.82 20.23 154.785 18.535H164.07C164.265 18.535 164.41 18.495 164.5 18.415C164.59 18.335 164.65 18.18 164.69 17.94C164.79 17.29 164.84 16.65 164.84 16.015C164.84 14.085 164.335 12.59 163.33 11.535C162.325 10.48 160.885 9.95502 159.01 9.95502C156.78 9.95502 155.045 10.65 153.805 12.04C152.565 13.43 151.94 15.38 151.94 17.88C151.94 20.38 152.56 22.485 153.805 23.825C155.045 25.165 156.88 25.835 159.305 25.835C160.135 25.835 160.955 25.755 161.775 25.6L161.77 25.595ZM154.775 16.575C154.875 15.115 155.27 14.015 155.96 13.275C156.65 12.535 157.615 12.165 158.86 12.165C159.945 12.165 160.77 12.47 161.33 13.08C161.89 13.69 162.175 14.6 162.175 15.8C162.175 16.155 162.165 16.41 162.145 16.57H154.78L154.775 16.575Z" fill="#C65A60"/>
</svg>
