<svg width="24" height="24" viewBox="0 0 24 24" fill="none" xmlns="http://www.w3.org/2000/svg">
<path fill-rule="evenodd" clip-rule="evenodd" d="M20.9096 6.07235C21.2201 6.38291 21.4439 6.76942 21.5586 7.19337C22.2192 9.85236 22.0666 14.0518 21.5715 16.8134C21.4567 17.2374 21.233 17.6239 20.9224 17.9344C20.6118 18.245 20.2253 18.4688 19.8014 18.5835C18.2493 19.0068 12.0027 19.0068 12.0027 19.0068C12.0027 19.0068 5.75609 19.0068 4.20405 18.5835C3.7801 18.4688 3.39359 18.245 3.08303 17.9344C2.77247 17.6239 2.54868 17.2374 2.43396 16.8134C1.76954 14.166 1.95168 9.96395 2.42113 7.2062C2.53586 6.78224 2.75964 6.39574 3.0702 6.08518C3.38077 5.77461 3.76727 5.55083 4.19122 5.43611C5.74326 5.01283 11.9899 5 11.9899 5C11.9899 5 18.2365 5 19.7885 5.42328C20.2125 5.538 20.599 5.76179 20.9096 6.07235ZM15.1837 12.0034L10.0017 15.0049V9.00197L15.1837 12.0034Z" fill="#C65A60"/>
</svg>
