<svg width="24" height="24" viewBox="0 0 24 24" fill="none" xmlns="http://www.w3.org/2000/svg">
<circle cx="12" cy="12" r="10" stroke="#7890B2" stroke-width="2"/>
<mask id="path-2-inside-1_1992_27726" fill="white">
<path fill-rule="evenodd" clip-rule="evenodd" d="M3.62598 19.1337C3.97025 18.5466 4.44654 18.0354 5.03 17.6464L7.92797 15.7144C7.34347 14.2537 6.99956 12.6906 6.99956 11.5C6.99956 8.46243 9.23814 6 11.9996 6C14.761 6 16.9996 8.46243 16.9996 11.5C16.9996 12.6906 16.6557 14.2537 16.0712 15.7144L18.9691 17.6464C19.5525 18.0353 20.0288 18.5465 20.373 19.1335C18.3554 21.4996 15.3526 23 11.9994 23C8.64629 23 5.64359 21.4997 3.62598 19.1337Z"/>
</mask>
<path d="M5.03 17.6464L3.9206 15.9823L3.9206 15.9823L5.03 17.6464ZM3.62598 19.1337L1.9007 18.1221L1.1812 19.3492L2.10418 20.4315L3.62598 19.1337ZM7.92797 15.7144L9.03737 17.3785L10.3878 16.4782L9.78483 14.9714L7.92797 15.7144ZM16.0712 15.7144L14.2143 14.9714L13.6113 16.4782L14.9618 17.3785L16.0712 15.7144ZM18.9691 17.6464L17.8597 19.3105L17.8597 19.3105L18.9691 17.6464ZM20.373 19.1335L21.8949 20.4312L22.8178 19.3488L22.0982 18.1218L20.373 19.1335ZM3.9206 15.9823C3.08132 16.5418 2.39589 17.2776 1.9007 18.1221L5.35125 20.1454C5.5446 19.8157 5.81176 19.5289 6.13941 19.3105L3.9206 15.9823ZM6.81857 14.0503L3.9206 15.9823L6.13941 19.3105L9.03737 17.3785L6.81857 14.0503ZM4.99956 11.5C4.99956 13.012 5.42056 14.8316 6.07111 16.4574L9.78483 14.9714C9.26638 13.6757 8.99956 12.3692 8.99956 11.5H4.99956ZM11.9996 4C7.95846 4 4.99956 7.54151 4.99956 11.5H8.99956C8.99956 9.38336 10.5178 8 11.9996 8V4ZM18.9996 11.5C18.9996 7.54151 16.0407 4 11.9996 4V8C13.4813 8 14.9996 9.38336 14.9996 11.5H18.9996ZM17.928 16.4574C18.5786 14.8316 18.9996 13.012 18.9996 11.5H14.9996C14.9996 12.3692 14.7327 13.6757 14.2143 14.9714L17.928 16.4574ZM20.0785 15.9823L17.1806 14.0503L14.9618 17.3785L17.8597 19.3105L20.0785 15.9823ZM22.0982 18.1218C21.6031 17.2774 20.9177 16.5417 20.0785 15.9823L17.8597 19.3105C18.1873 19.5289 18.4545 19.8156 18.6478 20.1453L22.0982 18.1218ZM18.8512 17.8358C17.1974 19.7753 14.7424 21 11.9994 21V25C15.9628 25 19.5135 23.2239 21.8949 20.4312L18.8512 17.8358ZM11.9994 21C9.25646 21 6.80162 19.7754 5.14777 17.836L2.10418 20.4315C4.48556 23.224 8.03613 25 11.9994 25V21Z" fill="#7890B2" mask="url(#path-2-inside-1_1992_27726)"/>
</svg>
